# xmcd CD database file
#
# Track frame offsets:
#	150
#	31627
#	61446
#	84883
#	138264
#	166408
#
# Disc length: 2635 seconds
#
# Revision: 0
# Processed by: cddbd v1.5.2PL0 Copyright (c) Steve Scherf et al.
# Submitted via: CDex 1.70beta2
#
DISCID=3e0a4906
DTITLE=Kazimierz Jonkisz - Jazz Energy
DYEAR=2013
DGENRE=Jazz
TTITLE0=What’s Happend ?
TTITLE1=Flowing Notes
TTITLE2=Three Sisters
TTITLE3=Confidence
TTITLE4=Monty
TTITLE5=IVY
EXTD=YEAR: 2013
EXTT0=
EXTT1=
EXTT2=
EXTT3=
EXTT4=
EXTT5=
PLAYORDER=
